<svg width="839" height="672" viewBox="0 0 839 672" fill="none" xmlns="http://www.w3.org/2000/svg">
<path d="M213.253 431.8L296.032 299.993C302.625 300.743 309.15 300.904 315.605 300.477C322.06 300.051 328.746 298.96 335.665 297.205C365.745 289.574 388.787 273.132 404.792 247.879C420.797 222.627 425.191 195.778 417.975 167.334C415.377 157.094 411.402 147.734 406.048 139.252C400.695 130.771 394.265 123.093 386.758 116.218L336.686 195.222L296.406 172.744L346.478 93.7398C336.456 90.8329 326.196 89.1973 315.699 88.833C305.201 88.4687 294.538 89.6601 283.709 92.4073C253.629 100.038 230.587 116.48 214.582 141.733C198.577 166.986 194.183 193.834 201.399 222.278C203.059 228.82 205.23 234.854 207.912 240.38C210.595 245.906 213.861 251.208 217.71 256.286L133.812 387.468C131.068 391.797 130.31 396.379 131.536 401.215C132.763 406.05 135.614 409.717 140.09 412.214L187.083 438.439C191.558 440.936 196.353 441.536 201.467 440.239C206.58 438.942 210.509 436.129 213.253 431.8ZM190.967 398.853L175.862 390.424L263.66 251.895C256.802 247.58 251.214 241.959 246.895 235.031C242.577 228.104 239.443 220.801 237.495 213.121C233.165 196.054 235.185 179.723 243.555 164.128C251.924 148.532 264.357 137.279 280.854 130.37L255.475 170.413C252.731 174.742 251.936 179.182 253.091 183.733C254.246 188.284 257.061 191.809 261.536 194.306L333.145 234.267C337.62 236.765 342.264 237.403 347.077 236.182C351.89 234.961 355.668 232.186 358.412 227.857L383.791 187.814C385.197 204.713 380.596 220.337 369.989 234.684C359.381 249.03 345.053 258.493 327.005 263.072C319.185 265.056 311.075 265.902 302.677 265.611C294.279 265.319 286.308 263.557 278.765 260.324L190.967 398.853Z" fill="black"/>
<path d="M337.424 652.192L337.455 652.205L337.487 652.217C363.323 662.424 391.488 667.5 421.933 667.5C459.941 667.5 490.602 659.428 513.445 642.79C536.763 626.035 548.517 603 548.517 574.126C548.517 548.036 537.685 526.772 516.339 510.674C495.298 494.495 461.336 481.069 415.018 470.116C391.457 464.535 373.192 458.997 360.115 453.529C347.39 447.766 338.594 441.59 333.284 435.18C328.096 428.609 325.398 420.447 325.398 410.412C325.398 393.932 331.893 381.98 344.907 373.89C358.276 365.579 378.908 361.12 407.433 361.12C429.737 361.12 448.744 364.635 464.578 371.507L464.611 371.521L464.645 371.535C480.475 378.106 492.531 387.573 501.023 399.872L501.036 399.891L501.049 399.91C505.69 406.484 512.406 409.767 520.629 409.767C524.126 409.767 527.407 408.982 530.346 407.303L530.533 407.196L530.708 407.072C536.807 402.767 540.565 397.177 540.565 390.299C540.565 386.482 539.296 382.737 537.14 379.134C526.863 361.254 509.622 347.301 485.94 337.058C462.534 326.8 436.339 321.716 407.433 321.716C369.448 321.716 338.673 329.466 315.54 345.429C292.525 361.213 280.848 383.009 280.848 410.412C280.848 436.744 291.309 458.17 312.054 474.305L312.085 474.329L312.117 474.353C332.857 489.907 366.206 502.547 411.598 512.565C446.103 520.337 469.856 529.075 483.446 538.529L483.464 538.542L483.483 538.555C497.044 547.788 503.5 559.557 503.5 574.126C503.5 591.397 496.711 604.481 483.025 613.901C469.09 623.18 448.904 628.096 421.933 628.096C397.451 628.096 375.725 624.426 356.686 617.18C337.972 609.628 322.531 599.114 310.264 585.676C305.267 579.647 299.117 576.175 291.897 576.175C288.009 576.175 284.428 577.495 281.245 579.882L281.118 579.977L280.998 580.081C275.76 584.62 272.429 589.966 272.429 596.111C272.429 600.721 274.13 604.958 277.148 608.734C291.742 627.215 311.906 641.666 337.424 652.192ZM608.355 661.349L608.427 661.429L608.503 661.504C612.631 665.633 618.077 667.5 624.314 667.5C630.779 667.5 636.416 665.681 640.593 661.504L640.669 661.429L640.741 661.349C644.804 656.88 646.589 651.012 646.589 644.29V515.012H775.867C782.055 515.012 787.52 513.649 791.694 510.348C796.364 506.912 798.609 501.922 798.609 496.011C798.609 490.068 796.755 484.877 792.403 481.306C788.221 477.875 782.449 476.543 775.867 476.543H646.589V387.024C646.589 379.788 648.508 374.391 651.973 370.4C655.707 366.446 660.539 364.395 666.88 364.395H811.416C817.887 364.395 823.57 363.044 827.792 359.666C832.087 356.231 834.159 351.449 834.159 345.862C834.159 339.918 832.305 334.728 827.952 331.157C823.771 327.726 817.998 326.394 811.416 326.394L666.412 326.394C646.894 326.394 631.014 331.616 619.359 342.585L619.334 342.608L619.31 342.631C607.961 353.637 602.507 368.628 602.507 387.024V644.29C602.507 651.012 604.292 656.88 608.355 661.349Z" fill="#FFE03F" stroke="black" stroke-width="9"/>
</svg>
