<svg width="299" height="61" viewBox="0 0 299 61" fill="none" xmlns="http://www.w3.org/2000/svg">
<path d="M58.06 48.44C55.244 48.44 52.648 47.9707 50.272 47.032C47.9253 46.064 46.092 44.744 44.772 43.072C44.5373 42.7787 44.42 42.4707 44.42 42.148C44.42 41.7373 44.64 41.3413 45.08 40.96C45.3147 40.784 45.564 40.696 45.828 40.696C46.356 40.696 46.8253 40.9453 47.236 41.444C48.4387 42.764 49.9493 43.7907 51.768 44.524C53.616 45.228 55.7133 45.58 58.06 45.58C60.6413 45.58 62.636 45.1107 64.044 44.172C65.452 43.204 66.156 41.84 66.156 40.08C66.156 38.5547 65.4667 37.3227 64.088 36.384C62.7387 35.4453 60.436 34.6093 57.18 33.876C52.9267 32.9373 49.8613 31.764 47.984 30.356C46.136 28.9187 45.212 27.0267 45.212 24.68C45.212 22.2453 46.2387 20.324 48.292 18.916C50.3747 17.4787 53.176 16.76 56.696 16.76C59.3653 16.76 61.7707 17.2293 63.912 18.168C66.0827 19.1067 67.6227 20.368 68.532 21.952C68.708 22.2453 68.796 22.524 68.796 22.788C68.796 23.2573 68.5467 23.668 68.048 24.02C67.8427 24.1373 67.608 24.196 67.344 24.196C66.6987 24.196 66.2 23.9467 65.848 23.448C64.9973 22.216 63.7947 21.2773 62.24 20.632C60.6853 19.9573 58.8373 19.62 56.696 19.62C51.2693 19.62 48.556 21.3067 48.556 24.68C48.556 25.7067 48.8347 26.572 49.392 27.276C49.9493 27.9507 50.844 28.5667 52.076 29.124C53.3373 29.652 55.0827 30.18 57.312 30.708C61.6533 31.7347 64.7773 32.9813 66.684 34.448C68.5907 35.8853 69.544 37.7627 69.544 40.08C69.544 42.6613 68.5027 44.7 66.42 46.196C64.3667 47.692 61.58 48.44 58.06 48.44ZM86.188 48.44C85.66 48.44 85.2494 48.2933 84.956 48C84.692 47.6773 84.56 47.2373 84.56 46.68V19.928H74.484C73.956 19.928 73.5307 19.8253 73.208 19.62C72.9147 19.3853 72.768 19.048 72.768 18.608C72.768 17.6693 73.34 17.2 74.484 17.2H97.98C99.124 17.2 99.696 17.6693 99.696 18.608C99.696 19.0187 99.5494 19.3413 99.256 19.576C98.9627 19.8107 98.5374 19.928 97.98 19.928H87.904V46.68C87.904 47.2373 87.7427 47.6773 87.42 48C87.1267 48.2933 86.716 48.44 86.188 48.44ZM110.794 48C109.004 48 107.611 47.5307 106.614 46.592C105.616 45.6533 105.118 44.3333 105.118 42.632V22.48C105.118 20.8373 105.602 19.5467 106.57 18.608C107.567 17.6693 108.946 17.2 110.706 17.2H124.346C125.49 17.2 126.062 17.6693 126.062 18.608C126.062 19.0187 125.915 19.3413 125.622 19.576C125.328 19.8107 124.903 19.928 124.346 19.928H110.75C110.046 19.928 109.474 20.1627 109.034 20.632C108.623 21.1013 108.418 21.7173 108.418 22.48V30.884H121.002C122.146 30.884 122.718 31.3533 122.718 32.292C122.718 32.732 122.556 33.0693 122.234 33.304C121.94 33.5387 121.53 33.656 121.002 33.656H108.418V42.72C108.418 43.4827 108.623 44.0987 109.034 44.568C109.474 45.0373 110.046 45.272 110.75 45.272H125.314C126.458 45.272 127.03 45.7267 127.03 46.636C127.03 47.076 126.868 47.4133 126.546 47.648C126.252 47.8827 125.842 48 125.314 48H110.794ZM138.637 48C136.848 48 135.455 47.5307 134.457 46.592C133.46 45.6533 132.961 44.3333 132.961 42.632V22.48C132.961 20.8373 133.445 19.5467 134.413 18.608C135.411 17.6693 136.789 17.2 138.549 17.2H152.189C153.333 17.2 153.905 17.6693 153.905 18.608C153.905 19.0187 153.759 19.3413 153.465 19.576C153.172 19.8107 152.747 19.928 152.189 19.928H138.593C137.889 19.928 137.317 20.1627 136.877 20.632C136.467 21.1013 136.261 21.7173 136.261 22.48V30.884H148.845C149.989 30.884 150.561 31.3533 150.561 32.292C150.561 32.732 150.4 33.0693 150.077 33.304C149.784 33.5387 149.373 33.656 148.845 33.656H136.261V42.72C136.261 43.4827 136.467 44.0987 136.877 44.568C137.317 45.0373 137.889 45.272 138.593 45.272H153.157C154.301 45.272 154.873 45.7267 154.873 46.636C154.873 47.076 154.712 47.4133 154.389 47.648C154.096 47.8827 153.685 48 153.157 48H138.637ZM166.569 48C164.78 48 163.386 47.5307 162.389 46.592C161.392 45.624 160.893 44.304 160.893 42.632V18.52C160.893 17.9627 161.04 17.5373 161.333 17.244C161.626 16.9213 162.022 16.76 162.521 16.76C163.049 16.76 163.46 16.9213 163.753 17.244C164.046 17.5373 164.193 17.9627 164.193 18.52V42.72C164.193 43.4827 164.398 44.0987 164.809 44.568C165.249 45.0373 165.821 45.272 166.525 45.272H181.177C182.321 45.272 182.893 45.7267 182.893 46.636C182.893 47.076 182.746 47.4133 182.453 47.648C182.16 47.8827 181.734 48 181.177 48H166.569Z" fill="black"/>
<mask id="path-2-outside-1_9_7" maskUnits="userSpaceOnUse" x="185" y="13" width="114" height="39" fill="black">
<rect fill="white" x="185" y="13" width="114" height="39"/>
<path d="M190.148 48.44C189.649 48.44 189.253 48.2933 188.96 48C188.667 47.6773 188.52 47.2373 188.52 46.68V22.48C188.52 20.8373 189.004 19.5467 189.972 18.608C190.969 17.6693 192.348 17.2 194.108 17.2H207.748C208.892 17.2 209.464 17.6693 209.464 18.608C209.464 19.0187 209.317 19.3413 209.024 19.576C208.731 19.8107 208.305 19.928 207.748 19.928H194.152C193.448 19.928 192.876 20.1627 192.436 20.632C192.025 21.1013 191.82 21.7173 191.82 22.48V31.324H204.404C205.548 31.324 206.12 31.7933 206.12 32.732C206.12 33.172 205.959 33.5093 205.636 33.744C205.343 33.9787 204.932 34.096 204.404 34.096H191.82V46.68C191.82 47.2373 191.673 47.6773 191.38 48C191.087 48.2933 190.676 48.44 190.148 48.44ZM221.182 48C219.393 48 218 47.5307 217.002 46.592C216.005 45.624 215.506 44.304 215.506 42.632V18.52C215.506 17.9627 215.653 17.5373 215.946 17.244C216.24 16.9213 216.636 16.76 217.134 16.76C217.662 16.76 218.073 16.9213 218.366 17.244C218.66 17.5373 218.806 17.9627 218.806 18.52V42.72C218.806 43.4827 219.012 44.0987 219.422 44.568C219.862 45.0373 220.434 45.272 221.138 45.272H235.79C236.934 45.272 237.506 45.7267 237.506 46.636C237.506 47.076 237.36 47.4133 237.066 47.648C236.773 47.8827 236.348 48 235.79 48H221.182ZM248.68 48C246.891 48 245.498 47.5307 244.5 46.592C243.503 45.6533 243.004 44.3333 243.004 42.632V22.48C243.004 20.8373 243.488 19.5467 244.456 18.608C245.454 17.6693 246.832 17.2 248.592 17.2H262.232C263.376 17.2 263.948 17.6693 263.948 18.608C263.948 19.0187 263.802 19.3413 263.508 19.576C263.215 19.8107 262.79 19.928 262.232 19.928H248.636C247.932 19.928 247.36 20.1627 246.92 20.632C246.51 21.1013 246.304 21.7173 246.304 22.48V30.884H258.888C260.032 30.884 260.604 31.3533 260.604 32.292C260.604 32.732 260.443 33.0693 260.12 33.304C259.827 33.5387 259.416 33.656 258.888 33.656H246.304V42.72C246.304 43.4827 246.51 44.0987 246.92 44.568C247.36 45.0373 247.932 45.272 248.636 45.272H263.2C264.344 45.272 264.916 45.7267 264.916 46.636C264.916 47.076 264.755 47.4133 264.432 47.648C264.139 47.8827 263.728 48 263.2 48H248.68ZM295.454 45.976C295.718 46.2693 295.85 46.6213 295.85 47.032C295.85 47.5307 295.63 47.912 295.19 48.176C294.897 48.352 294.618 48.44 294.354 48.44C293.856 48.44 293.386 48.1467 292.946 47.56L282.562 34.58L272.134 47.56C271.694 48.1467 271.225 48.44 270.726 48.44C270.286 48.44 269.934 48.2933 269.67 48C269.406 47.736 269.274 47.4133 269.274 47.032C269.274 46.6213 269.406 46.2693 269.67 45.976L280.67 32.248L270.286 19.268C270.052 18.9453 269.934 18.5933 269.934 18.212C269.934 17.6547 270.14 17.2587 270.55 17.024C270.814 16.848 271.078 16.76 271.342 16.76C271.782 16.76 272.237 17.0533 272.706 17.64L282.562 29.916L292.374 17.64C292.814 17.0533 293.284 16.76 293.782 16.76C294.017 16.76 294.266 16.848 294.53 17.024C294.97 17.288 295.19 17.684 295.19 18.212C295.19 18.652 295.073 19.004 294.838 19.268L284.41 32.248L295.454 45.976Z"/>
</mask>
<path d="M190.148 48.44C189.649 48.44 189.253 48.2933 188.96 48C188.667 47.6773 188.52 47.2373 188.52 46.68V22.48C188.52 20.8373 189.004 19.5467 189.972 18.608C190.969 17.6693 192.348 17.2 194.108 17.2H207.748C208.892 17.2 209.464 17.6693 209.464 18.608C209.464 19.0187 209.317 19.3413 209.024 19.576C208.731 19.8107 208.305 19.928 207.748 19.928H194.152C193.448 19.928 192.876 20.1627 192.436 20.632C192.025 21.1013 191.82 21.7173 191.82 22.48V31.324H204.404C205.548 31.324 206.12 31.7933 206.12 32.732C206.12 33.172 205.959 33.5093 205.636 33.744C205.343 33.9787 204.932 34.096 204.404 34.096H191.82V46.68C191.82 47.2373 191.673 47.6773 191.38 48C191.087 48.2933 190.676 48.44 190.148 48.44ZM221.182 48C219.393 48 218 47.5307 217.002 46.592C216.005 45.624 215.506 44.304 215.506 42.632V18.52C215.506 17.9627 215.653 17.5373 215.946 17.244C216.24 16.9213 216.636 16.76 217.134 16.76C217.662 16.76 218.073 16.9213 218.366 17.244C218.66 17.5373 218.806 17.9627 218.806 18.52V42.72C218.806 43.4827 219.012 44.0987 219.422 44.568C219.862 45.0373 220.434 45.272 221.138 45.272H235.79C236.934 45.272 237.506 45.7267 237.506 46.636C237.506 47.076 237.36 47.4133 237.066 47.648C236.773 47.8827 236.348 48 235.79 48H221.182ZM248.68 48C246.891 48 245.498 47.5307 244.5 46.592C243.503 45.6533 243.004 44.3333 243.004 42.632V22.48C243.004 20.8373 243.488 19.5467 244.456 18.608C245.454 17.6693 246.832 17.2 248.592 17.2H262.232C263.376 17.2 263.948 17.6693 263.948 18.608C263.948 19.0187 263.802 19.3413 263.508 19.576C263.215 19.8107 262.79 19.928 262.232 19.928H248.636C247.932 19.928 247.36 20.1627 246.92 20.632C246.51 21.1013 246.304 21.7173 246.304 22.48V30.884H258.888C260.032 30.884 260.604 31.3533 260.604 32.292C260.604 32.732 260.443 33.0693 260.12 33.304C259.827 33.5387 259.416 33.656 258.888 33.656H246.304V42.72C246.304 43.4827 246.51 44.0987 246.92 44.568C247.36 45.0373 247.932 45.272 248.636 45.272H263.2C264.344 45.272 264.916 45.7267 264.916 46.636C264.916 47.076 264.755 47.4133 264.432 47.648C264.139 47.8827 263.728 48 263.2 48H248.68ZM295.454 45.976C295.718 46.2693 295.85 46.6213 295.85 47.032C295.85 47.5307 295.63 47.912 295.19 48.176C294.897 48.352 294.618 48.44 294.354 48.44C293.856 48.44 293.386 48.1467 292.946 47.56L282.562 34.58L272.134 47.56C271.694 48.1467 271.225 48.44 270.726 48.44C270.286 48.44 269.934 48.2933 269.67 48C269.406 47.736 269.274 47.4133 269.274 47.032C269.274 46.6213 269.406 46.2693 269.67 45.976L280.67 32.248L270.286 19.268C270.052 18.9453 269.934 18.5933 269.934 18.212C269.934 17.6547 270.14 17.2587 270.55 17.024C270.814 16.848 271.078 16.76 271.342 16.76C271.782 16.76 272.237 17.0533 272.706 17.64L282.562 29.916L292.374 17.64C292.814 17.0533 293.284 16.76 293.782 16.76C294.017 16.76 294.266 16.848 294.53 17.024C294.97 17.288 295.19 17.684 295.19 18.212C295.19 18.652 295.073 19.004 294.838 19.268L284.41 32.248L295.454 45.976Z" fill="#FFE03F"/>
<path d="M188.96 48L186.74 50.018L186.788 50.0708L186.839 50.1213L188.96 48ZM189.972 18.608L187.916 16.4234L187.9 16.4387L187.884 16.4543L189.972 18.608ZM209.024 19.576L207.15 17.2334L207.15 17.2334L209.024 19.576ZM192.436 20.632L190.247 18.5802L190.212 18.6177L190.178 18.6565L192.436 20.632ZM191.82 31.324H188.82V34.324H191.82V31.324ZM205.636 33.744L203.871 31.3178L203.816 31.3583L203.762 31.4014L205.636 33.744ZM191.82 34.096V31.096H188.82V34.096H191.82ZM191.38 48L193.501 50.1213L193.552 50.0708L193.6 50.018L191.38 48ZM190.148 45.44C190.191 45.44 190.329 45.4465 190.519 45.5168C190.719 45.5908 190.917 45.714 191.081 45.8787L186.839 50.1213C187.806 51.0882 189.026 51.44 190.148 51.44V45.44ZM191.18 45.982C191.332 46.149 191.426 46.3288 191.476 46.4793C191.523 46.6197 191.52 46.6992 191.52 46.68H185.52C185.52 47.7691 185.817 49.0027 186.74 50.018L191.18 45.982ZM191.52 46.68V22.48H185.52V46.68H191.52ZM191.52 22.48C191.52 21.4594 191.798 21.0157 192.06 20.7617L187.884 16.4543C186.21 18.0776 185.52 20.2153 185.52 22.48H191.52ZM192.028 20.7926C192.324 20.5143 192.886 20.2 194.108 20.2V14.2C191.81 14.2 189.615 14.8243 187.916 16.4234L192.028 20.7926ZM194.108 20.2H207.748V14.2H194.108V20.2ZM207.748 20.2C207.986 20.2 207.607 20.2608 207.132 19.8712C206.877 19.6624 206.689 19.3957 206.577 19.1211C206.473 18.865 206.464 18.6722 206.464 18.608H212.464C212.464 17.5024 212.098 16.185 210.938 15.2328C209.891 14.3738 208.654 14.2 207.748 14.2V20.2ZM206.464 18.608C206.464 18.4526 206.493 18.2022 206.623 17.9166C206.756 17.623 206.951 17.3925 207.15 17.2334L210.898 21.9186C211.976 21.0566 212.464 19.8329 212.464 18.608H206.464ZM207.15 17.2334C207.372 17.0561 207.575 16.9789 207.687 16.948C207.792 16.9191 207.824 16.928 207.748 16.928V22.928C208.67 22.928 209.869 22.7417 210.898 21.9186L207.15 17.2334ZM207.748 16.928H194.152V22.928H207.748V16.928ZM194.152 16.928C192.706 16.928 191.311 17.4453 190.247 18.5802L194.625 22.6838C194.563 22.7498 194.462 22.827 194.334 22.8795C194.212 22.9295 194.137 22.928 194.152 22.928V16.928ZM190.178 18.6565C189.188 19.7877 188.82 21.1596 188.82 22.48H194.82C194.82 22.3662 194.835 22.3487 194.82 22.3947C194.812 22.4179 194.798 22.452 194.776 22.4923C194.753 22.5329 194.725 22.5722 194.694 22.6075L190.178 18.6565ZM188.82 22.48V31.324H194.82V22.48H188.82ZM191.82 34.324H204.404V28.324H191.82V34.324ZM204.404 34.324C204.642 34.324 204.263 34.3848 203.788 33.9952C203.533 33.7864 203.345 33.5197 203.233 33.2451C203.129 32.989 203.12 32.7962 203.12 32.732H209.12C209.12 31.6264 208.754 30.309 207.594 29.3568C206.547 28.4978 205.31 28.324 204.404 28.324V34.324ZM203.12 32.732C203.12 32.5826 203.149 32.3214 203.293 32.0206C203.441 31.7096 203.658 31.4734 203.871 31.3178L207.401 36.1702C208.588 35.3069 209.12 34.0173 209.12 32.732H203.12ZM203.762 31.4014C204.179 31.0673 204.522 31.096 204.404 31.096V37.096C205.342 37.096 206.506 36.89 207.51 36.0866L203.762 31.4014ZM204.404 31.096H191.82V37.096H204.404V31.096ZM188.82 34.096V46.68H194.82V34.096H188.82ZM188.82 46.68C188.82 46.6992 188.817 46.6197 188.864 46.4793C188.914 46.3288 189.008 46.149 189.16 45.982L193.6 50.018C194.523 49.0027 194.82 47.7691 194.82 46.68H188.82ZM189.259 45.8787C189.442 45.6952 189.652 45.573 189.843 45.5048C190.022 45.441 190.138 45.44 190.148 45.44V51.44C191.244 51.44 192.502 51.1202 193.501 50.1213L189.259 45.8787ZM217.002 46.592L214.913 48.7447L214.93 48.7608L214.946 48.7766L217.002 46.592ZM215.946 17.244L218.068 19.3653L218.118 19.3148L218.166 19.262L215.946 17.244ZM218.366 17.244L216.147 19.262L216.195 19.3148L216.245 19.3653L218.366 17.244ZM219.422 44.568L217.165 46.5435L217.199 46.5823L217.234 46.6198L219.422 44.568ZM221.182 45C219.916 45 219.345 44.6774 219.059 44.4074L214.946 48.7766C216.654 50.3839 218.87 51 221.182 51V45ZM219.092 44.4393C218.792 44.1486 218.506 43.6698 218.506 42.632H212.506C212.506 44.9382 213.218 47.0994 214.913 48.7447L219.092 44.4393ZM218.506 42.632V18.52H212.506V42.632H218.506ZM218.506 18.52C218.506 18.4978 218.51 18.5941 218.453 18.761C218.39 18.9417 218.27 19.1634 218.068 19.3653L213.825 15.1227C212.797 16.1506 212.506 17.4486 212.506 18.52H218.506ZM218.166 19.262C218.018 19.4254 217.821 19.5675 217.595 19.6593C217.379 19.7473 217.21 19.76 217.134 19.76V13.76C215.924 13.76 214.673 14.1853 213.727 15.226L218.166 19.262ZM217.134 19.76C217.095 19.76 216.947 19.754 216.741 19.6733C216.523 19.5875 216.314 19.4457 216.147 19.262L220.586 15.226C219.606 14.148 218.315 13.76 217.134 13.76V19.76ZM216.245 19.3653C216.043 19.1634 215.923 18.9417 215.86 18.761C215.803 18.5941 215.806 18.4978 215.806 18.52H221.806C221.806 17.4486 221.516 16.1506 220.488 15.1227L216.245 19.3653ZM215.806 18.52V42.72H221.806V18.52H215.806ZM215.806 42.72C215.806 44.0404 216.175 45.4123 217.165 46.5435L221.68 42.5925C221.711 42.6278 221.739 42.6671 221.762 42.7077C221.785 42.748 221.799 42.7821 221.806 42.8053C221.822 42.8513 221.806 42.8338 221.806 42.72H215.806ZM217.234 46.6198C218.298 47.7547 219.692 48.272 221.138 48.272V42.272C221.123 42.272 221.198 42.2705 221.32 42.3205C221.448 42.373 221.549 42.4502 221.611 42.5162L217.234 46.6198ZM221.138 48.272H235.79V42.272H221.138V48.272ZM235.79 48.272C236.045 48.272 235.682 48.336 235.211 47.9615C234.954 47.7571 234.754 47.4885 234.633 47.1994C234.519 46.9286 234.506 46.7182 234.506 46.636H240.506C240.506 45.5125 240.119 44.1982 238.944 43.2645C237.901 42.4353 236.68 42.272 235.79 42.272V48.272ZM234.506 46.636C234.506 46.5237 234.526 46.2981 234.645 46.0228C234.771 45.7339 234.966 45.4864 235.192 45.3054L238.941 49.9906C240.072 49.0857 240.506 47.8126 240.506 46.636H234.506ZM235.192 45.3054C235.414 45.1281 235.618 45.0509 235.73 45.02C235.835 44.9911 235.867 45 235.79 45V51C236.712 51 237.912 50.8137 238.941 49.9906L235.192 45.3054ZM235.79 45H221.182V51H235.79V45ZM244.5 46.592L246.556 44.4074L246.556 44.4074L244.5 46.592ZM244.456 18.608L242.4 16.4234L242.384 16.4387L242.368 16.4543L244.456 18.608ZM263.508 19.576L261.634 17.2334L261.634 17.2334L263.508 19.576ZM246.92 20.632L244.732 18.5802L244.697 18.6177L244.663 18.6565L246.92 20.632ZM246.304 30.884H243.304V33.884H246.304V30.884ZM260.12 33.304L258.356 30.8778L258.3 30.9183L258.246 30.9614L260.12 33.304ZM246.304 33.656V30.656H243.304V33.656H246.304ZM246.92 44.568L244.663 46.5435L244.697 46.5823L244.732 46.6198L246.92 44.568ZM264.432 47.648L262.668 45.2218L262.612 45.2623L262.558 45.3054L264.432 47.648ZM248.68 45C247.414 45 246.843 44.6774 246.556 44.4074L242.444 48.7766C244.152 50.3839 246.368 51 248.68 51V45ZM246.556 44.4074C246.301 44.1674 246.004 43.7203 246.004 42.632H240.004C240.004 44.9464 240.705 47.1393 242.444 48.7766L246.556 44.4074ZM246.004 42.632V22.48H240.004V42.632H246.004ZM246.004 22.48C246.004 21.4594 246.283 21.0157 246.545 20.7617L242.368 16.4543C240.694 18.0776 240.004 20.2153 240.004 22.48H246.004ZM246.512 20.7926C246.808 20.5143 247.371 20.2 248.592 20.2V14.2C246.294 14.2 244.099 14.8243 242.4 16.4234L246.512 20.7926ZM248.592 20.2H262.232V14.2H248.592V20.2ZM262.232 20.2C262.47 20.2 262.091 20.2608 261.616 19.8712C261.362 19.6624 261.173 19.3957 261.062 19.1211C260.958 18.865 260.948 18.6722 260.948 18.608H266.948C266.948 17.5024 266.583 16.185 265.422 15.2328C264.375 14.3738 263.138 14.2 262.232 14.2V20.2ZM260.948 18.608C260.948 18.4526 260.977 18.2022 261.107 17.9166C261.241 17.623 261.435 17.3925 261.634 17.2334L265.382 21.9186C266.46 21.0566 266.948 19.8329 266.948 18.608H260.948ZM261.634 17.2334C261.856 17.0561 262.06 16.9789 262.172 16.948C262.276 16.9191 262.309 16.928 262.232 16.928V22.928C263.154 22.928 264.354 22.7417 265.382 21.9186L261.634 17.2334ZM262.232 16.928H248.636V22.928H262.232V16.928ZM248.636 16.928C247.19 16.928 245.796 17.4453 244.732 18.5802L249.109 22.6838C249.047 22.7498 248.946 22.827 248.818 22.8795C248.696 22.9295 248.621 22.928 248.636 22.928V16.928ZM244.663 18.6565C243.673 19.7877 243.304 21.1596 243.304 22.48H249.304C249.304 22.3662 249.32 22.3487 249.304 22.3947C249.297 22.4179 249.283 22.452 249.26 22.4923C249.237 22.5329 249.209 22.5722 249.178 22.6075L244.663 18.6565ZM243.304 22.48V30.884H249.304V22.48H243.304ZM246.304 33.884H258.888V27.884H246.304V33.884ZM258.888 33.884C259.126 33.884 258.747 33.9448 258.272 33.5552C258.018 33.3464 257.829 33.0797 257.718 32.8051C257.614 32.549 257.604 32.3562 257.604 32.292H263.604C263.604 31.1864 263.239 29.869 262.078 28.9168C261.031 28.0578 259.794 27.884 258.888 27.884V33.884ZM257.604 32.292C257.604 32.1426 257.633 31.8814 257.777 31.5806C257.926 31.2696 258.142 31.0334 258.356 30.8778L261.885 35.7302C263.072 34.8669 263.604 33.5773 263.604 32.292H257.604ZM258.246 30.9614C258.664 30.6273 259.006 30.656 258.888 30.656V36.656C259.826 36.656 260.99 36.45 261.994 35.6466L258.246 30.9614ZM258.888 30.656H246.304V36.656H258.888V30.656ZM243.304 33.656V42.72H249.304V33.656H243.304ZM243.304 42.72C243.304 44.0404 243.673 45.4123 244.663 46.5435L249.178 42.5925C249.209 42.6278 249.237 42.6671 249.26 42.7077C249.283 42.748 249.297 42.7821 249.304 42.8053C249.32 42.8513 249.304 42.8338 249.304 42.72H243.304ZM244.732 46.6198C245.796 47.7547 247.19 48.272 248.636 48.272V42.272C248.621 42.272 248.696 42.2705 248.818 42.3205C248.946 42.373 249.047 42.4502 249.109 42.5162L244.732 46.6198ZM248.636 48.272H263.2V42.272H248.636V48.272ZM263.2 48.272C263.455 48.272 263.092 48.336 262.621 47.9615C262.364 47.7571 262.164 47.4885 262.043 47.1994C261.929 46.9286 261.916 46.7182 261.916 46.636H267.916C267.916 45.5125 267.529 44.1982 266.354 43.2645C265.311 42.4353 264.09 42.272 263.2 42.272V48.272ZM261.916 46.636C261.916 46.4866 261.945 46.2254 262.089 45.9246C262.238 45.6136 262.454 45.3774 262.668 45.2218L266.197 50.0742C267.384 49.2109 267.916 47.9213 267.916 46.636H261.916ZM262.558 45.3054C262.976 44.9713 263.318 45 263.2 45V51C264.138 51 265.302 50.794 266.306 49.9906L262.558 45.3054ZM263.2 45H248.68V51H263.2V45ZM295.454 45.976L293.117 47.8565L293.169 47.9212L293.225 47.9829L295.454 45.976ZM295.19 48.176L293.647 45.6035L293.647 45.6035L295.19 48.176ZM292.946 47.56L295.346 45.76L295.318 45.7225L295.289 45.6859L292.946 47.56ZM282.562 34.58L284.905 32.7059L282.567 29.7838L280.224 32.7011L282.562 34.58ZM272.134 47.56L269.796 45.6811L269.764 45.72L269.734 45.76L272.134 47.56ZM269.67 48L271.9 45.9931L271.848 45.9345L271.792 45.8787L269.67 48ZM269.67 45.976L271.9 47.9829L271.958 47.919L272.012 47.8519L269.67 45.976ZM280.67 32.248L283.012 34.1239L284.514 32.2495L283.013 30.3739L280.67 32.248ZM270.286 19.268L267.86 21.0325L267.901 21.0883L267.944 21.1421L270.286 19.268ZM270.55 17.024L272.039 19.6287L272.129 19.5775L272.215 19.5202L270.55 17.024ZM272.706 17.64L270.364 19.5141L270.367 19.5182L272.706 17.64ZM282.562 29.916L280.223 31.7942L282.568 34.7144L284.906 31.7891L282.562 29.916ZM292.374 17.64L294.718 19.5131L294.747 19.477L294.774 19.44L292.374 17.64ZM294.53 17.024L292.866 19.5202L292.926 19.5597L292.987 19.5965L294.53 17.024ZM294.838 19.268L292.596 17.2749L292.547 17.3308L292.5 17.3891L294.838 19.268ZM284.41 32.248L282.072 30.3691L280.561 32.2493L282.073 34.1285L284.41 32.248ZM293.225 47.9829C293.118 47.8648 293.015 47.7059 292.942 47.5134C292.871 47.3227 292.85 47.1531 292.85 47.032H298.85C298.85 45.9133 298.466 44.8374 297.684 43.9691L293.225 47.9829ZM292.85 47.032C292.85 46.8262 292.9 46.5159 293.087 46.1928C293.271 45.8737 293.503 45.6901 293.647 45.6035L296.734 50.7485C298.045 49.9616 298.85 48.6214 298.85 47.032H292.85ZM293.647 45.6035C293.685 45.5808 293.936 45.44 294.354 45.44V51.44C295.301 51.44 296.109 51.1232 296.734 50.7485L293.647 45.6035ZM294.354 45.44C294.728 45.44 295.03 45.5585 295.218 45.676C295.381 45.7776 295.413 45.8483 295.346 45.76L290.546 49.36C291.274 50.3307 292.528 51.44 294.354 51.44V45.44ZM295.289 45.6859L284.905 32.7059L280.22 36.4541L290.604 49.4341L295.289 45.6859ZM280.224 32.7011L269.796 45.6811L274.473 49.4389L284.901 36.4589L280.224 32.7011ZM269.734 45.76C269.668 45.8483 269.7 45.7776 269.862 45.676C270.05 45.5585 270.353 45.44 270.726 45.44V51.44C272.553 51.44 273.806 50.3307 274.534 49.36L269.734 45.76ZM270.726 45.44C270.842 45.44 271.045 45.4602 271.286 45.5608C271.536 45.6646 271.745 45.8209 271.9 45.9931L267.441 50.0069C268.342 51.009 269.545 51.44 270.726 51.44V45.44ZM271.792 45.8787C271.921 46.0082 272.055 46.1911 272.15 46.4241C272.245 46.6558 272.274 46.8698 272.274 47.032H266.274C266.274 48.1899 266.709 49.2814 267.549 50.1213L271.792 45.8787ZM272.274 47.032C272.274 47.1531 272.254 47.3227 272.182 47.5134C272.11 47.7059 272.007 47.8648 271.9 47.9829L267.441 43.9691C266.659 44.8374 266.274 45.9133 266.274 47.032H272.274ZM272.012 47.8519L283.012 34.1239L278.329 30.3721L267.329 44.1001L272.012 47.8519ZM283.013 30.3739L272.629 17.3939L267.944 21.1421L278.328 34.1221L283.013 30.3739ZM272.713 17.5035C272.763 17.5722 272.823 17.6763 272.868 17.8133C272.915 17.9517 272.934 18.0893 272.934 18.212H266.934C266.934 19.2579 267.271 20.2224 267.86 21.0325L272.713 17.5035ZM272.934 18.212C272.934 18.2965 272.919 18.5559 272.752 18.8779C272.572 19.2239 272.303 19.4778 272.039 19.6287L269.062 14.4193C267.534 15.2925 266.934 16.8065 266.934 18.212H272.934ZM272.215 19.5202C272.087 19.6054 271.781 19.76 271.342 19.76V13.76C270.376 13.76 269.542 14.0906 268.886 14.5278L272.215 19.5202ZM271.342 19.76C270.866 19.76 270.533 19.5949 270.387 19.5009C270.259 19.4185 270.259 19.3829 270.364 19.5141L275.049 15.7659C274.401 14.9557 273.175 13.76 271.342 13.76V19.76ZM270.367 19.5182L280.223 31.7942L284.902 28.0378L275.046 15.7618L270.367 19.5182ZM284.906 31.7891L294.718 19.5131L290.031 15.7669L280.219 28.0429L284.906 31.7891ZM294.774 19.44C294.841 19.3517 294.809 19.4224 294.646 19.524C294.458 19.6415 294.156 19.76 293.782 19.76V13.76C291.956 13.76 290.702 14.8693 289.974 15.84L294.774 19.44ZM293.782 19.76C293.25 19.76 292.926 19.5599 292.866 19.5202L296.195 14.5278C295.607 14.1361 294.784 13.76 293.782 13.76V19.76ZM292.987 19.5965C292.817 19.4943 292.581 19.2964 292.403 18.9759C292.227 18.6594 292.19 18.3729 292.19 18.212H298.19C298.19 16.6677 297.449 15.2767 296.074 14.4515L292.987 19.5965ZM292.19 18.212C292.19 18.1678 292.196 18.038 292.256 17.8573C292.32 17.6677 292.43 17.4618 292.596 17.2749L297.081 21.2611C297.915 20.3223 298.19 19.1992 298.19 18.212H292.19ZM292.5 17.3891L282.072 30.3691L286.749 34.1269L297.177 21.1469L292.5 17.3891ZM282.073 34.1285L293.117 47.8565L297.792 44.0955L286.748 30.3675L282.073 34.1285Z" fill="black" mask="url(#path-2-outside-1_9_7)"/>
<path d="M29.2697 48.76L33.3574 33.5415C34.0016 33.4771 34.6227 33.3541 35.2205 33.1726C35.8184 32.9911 36.4193 32.7369 37.0233 32.4099C39.6493 30.9884 41.3608 28.8182 42.1576 25.8994C42.9545 22.9806 42.6091 20.1471 41.1214 17.3989C40.5859 16.4096 39.9451 15.5394 39.199 14.7884C38.4529 14.0374 37.6278 13.3914 36.7237 12.8503L34.2306 21.982L29.7878 20.5492L32.2809 11.4175C31.2515 11.3351 30.2358 11.3874 29.2335 11.5746C28.2313 11.7618 27.2575 12.1113 26.3121 12.623C23.6861 14.0446 21.9746 16.2147 21.1778 19.1336C20.3809 22.0524 20.7263 24.8858 22.214 27.634C22.5561 28.2661 22.9322 28.8354 23.3422 29.3419C23.7522 29.8484 24.211 30.3197 24.7186 30.7556L20.5075 45.9343C20.3709 46.4347 20.4291 46.9184 20.682 47.3856C20.9349 47.8528 21.3082 48.166 21.8018 48.3252L26.9851 49.9968C27.4787 50.156 27.9487 50.1148 28.3952 49.8731C28.8416 49.6314 29.1331 49.2604 29.2697 48.76ZM26.2306 45.8745L24.5646 45.3372L28.936 29.3255C28.1657 29.0317 27.4785 28.5776 26.8742 27.963C26.2699 27.3485 25.7669 26.6702 25.3652 25.9282C24.4726 24.2793 24.2008 22.5697 24.5498 20.7995C24.8989 19.0292 25.7548 17.6153 27.1178 16.5577L25.8542 21.1861C25.7176 21.6865 25.7683 22.1565 26.0063 22.5962C26.2443 23.0359 26.6102 23.3354 27.1038 23.4946L35.0021 26.0417C35.4958 26.2009 35.9527 26.1668 36.3728 25.9393C36.793 25.7119 37.0714 25.348 37.208 24.8476L38.4716 20.2192C39.0832 21.9136 39.0911 23.6061 38.4953 25.2968C37.8994 26.9874 36.8137 28.2592 35.2381 29.1121C34.5553 29.4817 33.813 29.7414 33.0112 29.8911C32.2095 30.0409 31.4064 30.0314 30.602 29.8628L26.2306 45.8745Z" fill="black"/>
</svg>
